<mxfile host="app.diagrams.net" modified="2022-09-03T12:05:24.237Z" agent="5.0 (Macintosh; Intel Mac OS X 10_15_7) AppleWebKit/537.36 (KHTML, like Gecko) Chrome/104.0.0.0 Safari/537.36" etag="FsxcekH1xMiaqPVPykTw" version="20.2.8" type="github">
  <diagram id="ivgp5o-uFB3a_pWnE-CI" name="Page-1">
    <mxGraphModel dx="946" dy="613" grid="1" gridSize="10" guides="1" tooltips="1" connect="1" arrows="1" fold="1" page="1" pageScale="1" pageWidth="827" pageHeight="1169" math="0" shadow="0">
      <root>
        <mxCell id="0" />
        <mxCell id="1" parent="0" />
        <mxCell id="VGWMU0T9XFFCfc1bez9S-1" value="List" style="swimlane;fontStyle=0;childLayout=stackLayout;horizontal=1;startSize=30;horizontalStack=0;resizeParent=1;resizeParentMax=0;resizeLast=0;collapsible=1;marginBottom=0;" parent="1" vertex="1">
          <mxGeometry x="340" y="260" width="140" height="120" as="geometry" />
        </mxCell>
        <mxCell id="VGWMU0T9XFFCfc1bez9S-2" value="Item 1" style="text;strokeColor=none;fillColor=none;align=left;verticalAlign=middle;spacingLeft=4;spacingRight=4;overflow=hidden;points=[[0,0.5],[1,0.5]];portConstraint=eastwest;rotatable=0;" parent="VGWMU0T9XFFCfc1bez9S-1" vertex="1">
          <mxGeometry y="30" width="140" height="30" as="geometry" />
        </mxCell>
        <mxCell id="VGWMU0T9XFFCfc1bez9S-3" value="Item 2" style="text;strokeColor=none;fillColor=none;align=left;verticalAlign=middle;spacingLeft=4;spacingRight=4;overflow=hidden;points=[[0,0.5],[1,0.5]];portConstraint=eastwest;rotatable=0;" parent="VGWMU0T9XFFCfc1bez9S-1" vertex="1">
          <mxGeometry y="60" width="140" height="30" as="geometry" />
        </mxCell>
        <mxCell id="VGWMU0T9XFFCfc1bez9S-4" value="Item 3" style="text;strokeColor=none;fillColor=none;align=left;verticalAlign=middle;spacingLeft=4;spacingRight=4;overflow=hidden;points=[[0,0.5],[1,0.5]];portConstraint=eastwest;rotatable=0;" parent="VGWMU0T9XFFCfc1bez9S-1" vertex="1">
          <mxGeometry y="90" width="140" height="30" as="geometry" />
        </mxCell>
        <mxCell id="VGWMU0T9XFFCfc1bez9S-5" value="Pool" style="swimlane;childLayout=stackLayout;resizeParent=1;resizeParentMax=0;startSize=20;horizontal=0;horizontalStack=1;" parent="1" vertex="1">
          <mxGeometry x="220" y="80" width="380" height="480" as="geometry" />
        </mxCell>
        <mxCell id="VGWMU0T9XFFCfc1bez9S-6" value="Lane 1" style="swimlane;startSize=20;" parent="VGWMU0T9XFFCfc1bez9S-5" vertex="1">
          <mxGeometry x="20" width="120" height="480" as="geometry" />
        </mxCell>
        <mxCell id="VGWMU0T9XFFCfc1bez9S-7" value="Lane 2" style="swimlane;startSize=20;" parent="VGWMU0T9XFFCfc1bez9S-5" vertex="1">
          <mxGeometry x="140" width="120" height="480" as="geometry" />
        </mxCell>
        <mxCell id="VGWMU0T9XFFCfc1bez9S-8" value="Lane 3" style="swimlane;startSize=20;" parent="VGWMU0T9XFFCfc1bez9S-5" vertex="1">
          <mxGeometry x="260" width="120" height="480" as="geometry" />
        </mxCell>
      </root>
    </mxGraphModel>
  </diagram>
</mxfile>
